<svg width="30" height="30" viewBox="0 0 30 30" fill="none" xmlns="http://www.w3.org/2000/svg">
<path d="M0 15C0 6.71573 6.71573 0 15 0V0C23.2843 0 30 6.71573 30 15V15C30 23.2843 23.2843 30 15 30V30C6.71573 30 0 23.2843 0 15V15Z" fill="#FF8C42" fill-opacity="0.2"/>
<path d="M18.25 11.5H9.25C8.91848 11.5 8.60054 11.6317 8.36612 11.8661C8.1317 12.1005 8 12.4185 8 12.75V19.75C8 20.0815 8.1317 20.3995 8.36612 20.6339C8.60054 20.8683 8.91848 21 9.25 21H18.25C18.5815 21 18.8995 20.8683 19.1339 20.6339C19.3683 20.3995 19.5 20.0815 19.5 19.75V12.75C19.5 12.4185 19.3683 12.1005 19.1339 11.8661C18.8995 11.6317 18.5815 11.5 18.25 11.5ZM18 19.5H9.5V13H18V19.5ZM22 10.25V18C22 18.1989 21.921 18.3897 21.7803 18.5303C21.6397 18.671 21.4489 18.75 21.25 18.75C21.0511 18.75 20.8603 18.671 20.7197 18.5303C20.579 18.3897 20.5 18.1989 20.5 18V10.5H11C10.8011 10.5 10.6103 10.421 10.4697 10.2803C10.329 10.1397 10.25 9.94891 10.25 9.75C10.25 9.55109 10.329 9.36032 10.4697 9.21967C10.6103 9.07902 10.8011 9 11 9H20.75C21.0815 9 21.3995 9.1317 21.6339 9.36612C21.8683 9.60054 22 9.91848 22 10.25Z" fill="#FF8C42"/>
</svg>
