<svg width="30" height="30" viewBox="0 0 30 30" fill="none" xmlns="http://www.w3.org/2000/svg">
<path d="M21.0938 8.4375H4.21875C3.59715 8.4375 3.00101 8.68443 2.56147 9.12397C2.12193 9.56351 1.875 10.1596 1.875 10.7812V23.9062C1.875 24.5279 2.12193 25.124 2.56147 25.5635C3.00101 26.0031 3.59715 26.25 4.21875 26.25H21.0938C21.7154 26.25 22.3115 26.0031 22.751 25.5635C23.1906 25.124 23.4375 24.5279 23.4375 23.9062V10.7812C23.4375 10.1596 23.1906 9.56351 22.751 9.12397C22.3115 8.68443 21.7154 8.4375 21.0938 8.4375ZM20.625 23.4375H4.6875V11.25H20.625V23.4375ZM28.125 6.09375V20.625C28.125 20.998 27.9768 21.3556 27.7131 21.6194C27.4494 21.8831 27.0917 22.0312 26.7188 22.0312C26.3458 22.0312 25.9881 21.8831 25.7244 21.6194C25.4607 21.3556 25.3125 20.998 25.3125 20.625V6.5625H7.5C7.12704 6.5625 6.76935 6.41434 6.50563 6.15062C6.24191 5.8869 6.09375 5.52921 6.09375 5.15625C6.09375 4.78329 6.24191 4.4256 6.50563 4.16188C6.76935 3.89816 7.12704 3.75 7.5 3.75H25.7812C26.4029 3.75 26.999 3.99693 27.4385 4.43647C27.8781 4.87601 28.125 5.47215 28.125 6.09375Z" fill="#32E0C4"/>
</svg>
