<svg width="40" height="40" viewBox="0 0 40 40" fill="none" xmlns="http://www.w3.org/2000/svg">
<path d="M5 28.7499V34.9999H11.25L29.6833 16.5666L23.4333 10.3166L5 28.7499ZM34.5167 11.7333C34.6712 11.5791 34.7937 11.3959 34.8774 11.1943C34.961 10.9927 35.0041 10.7765 35.0041 10.5583C35.0041 10.34 34.961 10.1238 34.8774 9.92222C34.7937 9.72059 34.6712 9.53745 34.5167 9.38326L30.6167 5.48326C30.4625 5.32875 30.2793 5.20617 30.0777 5.12254C29.8761 5.0389 29.6599 4.99585 29.4417 4.99585C29.2234 4.99585 29.0072 5.0389 28.8056 5.12254C28.604 5.20617 28.4209 5.32875 28.2667 5.48326L25.2167 8.53326L31.4667 14.7833L34.5167 11.7333Z" fill="#B3B3B3"/>
</svg>
