<svg width="32" height="32" viewBox="0 0 32 32" fill="none" xmlns="http://www.w3.org/2000/svg">
<path d="M0 16C0 7.16344 7.16344 0 16 0C24.8366 0 32 7.16344 32 16C32 24.8366 24.8366 32 16 32C7.16344 32 0 24.8366 0 16Z" fill="#32E0C4" fill-opacity="0.2"/>
<path d="M21.3335 11.3333H10.6668C9.93045 11.3333 9.3335 11.9303 9.3335 12.6667V19.3333C9.3335 20.0697 9.93045 20.6667 10.6668 20.6667H21.3335C22.0699 20.6667 22.6668 20.0697 22.6668 19.3333V12.6667C22.6668 11.9303 22.0699 11.3333 21.3335 11.3333Z" stroke="#32E0C4" stroke-width="2" stroke-linecap="round" stroke-linejoin="round"/>
<path d="M9.3335 14.6667H22.6668" stroke="#32E0C4" stroke-width="2" stroke-linecap="round" stroke-linejoin="round"/>
</svg>
