<svg width="30" height="30" viewBox="0 0 30 30" fill="none" xmlns="http://www.w3.org/2000/svg">
<path d="M7.61242 23.7499H22.6124L20.9874 25.3624C20.752 25.5978 20.6198 25.917 20.6198 26.2499C20.6198 26.5828 20.752 26.902 20.9874 27.1374C21.2228 27.3728 21.542 27.505 21.8749 27.505C22.2078 27.505 22.527 27.3728 22.7624 27.1374L26.5124 23.3874C26.6296 23.2712 26.7226 23.133 26.786 22.9806C26.8495 22.8283 26.8822 22.6649 26.8822 22.4999C26.8822 22.3349 26.8495 22.1715 26.786 22.0192C26.7226 21.8669 26.6296 21.7286 26.5124 21.6124L22.7624 17.8624C22.6462 17.7453 22.508 17.6523 22.3556 17.5888C22.2033 17.5253 22.0399 17.4927 21.8749 17.4927C21.7099 17.4927 21.5465 17.5253 21.3942 17.5888C21.2419 17.6523 21.1036 17.7453 20.9874 17.8624C20.8703 17.9786 20.7773 18.1169 20.7138 18.2692C20.6503 18.4215 20.6177 18.5849 20.6177 18.7499C20.6177 18.9149 20.6503 19.0783 20.7138 19.2306C20.7773 19.383 20.8703 19.5212 20.9874 19.6374L22.6124 21.2499H7.61242C7.35633 21.2549 7.10177 21.2094 6.86328 21.1159C6.62479 21.0225 6.40704 20.883 6.22248 20.7054C6.03791 20.5278 5.89014 20.3156 5.78761 20.0809C5.68508 19.8461 5.6298 19.5935 5.62492 19.3374V16.2499C5.62492 15.9184 5.49323 15.6005 5.25881 15.366C5.02439 15.1316 4.70644 14.9999 4.37492 14.9999C4.0434 14.9999 3.72546 15.1316 3.49104 15.366C3.25662 15.6005 3.12492 15.9184 3.12492 16.2499V19.3374C3.12983 19.9218 3.24979 20.4995 3.47797 21.0375C3.70614 21.5756 4.03806 22.0634 4.45477 22.4731C4.87148 22.8829 5.36481 23.2065 5.9066 23.4256C6.4484 23.6447 7.02804 23.7549 7.61242 23.7499ZM7.23742 12.1374C7.4728 12.3728 7.79205 12.505 8.12492 12.505C8.4578 12.505 8.77704 12.3728 9.01242 12.1374C9.2478 11.902 9.38004 11.5828 9.38004 11.2499C9.38004 10.917 9.2478 10.5978 9.01242 10.3624L7.38742 8.74992H22.3874C22.6435 8.74495 22.8981 8.79048 23.1366 8.88391C23.3751 8.97734 23.5928 9.11684 23.7774 9.29444C23.9619 9.47204 24.1097 9.68427 24.2122 9.91899C24.3148 10.1537 24.37 10.4063 24.3749 10.6624V13.7499C24.3749 14.0814 24.5066 14.3994 24.741 14.6338C24.9755 14.8682 25.2934 14.9999 25.6249 14.9999C25.9564 14.9999 26.2744 14.8682 26.5088 14.6338C26.7432 14.3994 26.8749 14.0814 26.8749 13.7499V10.6624C26.87 10.078 26.7501 9.50034 26.5219 8.96231C26.2937 8.42429 25.9618 7.93648 25.5451 7.52674C25.1284 7.11699 24.635 6.79334 24.0932 6.57427C23.5515 6.35519 22.9718 6.24498 22.3874 6.24992H7.38742L9.01242 4.63742C9.12958 4.52122 9.22258 4.38297 9.28604 4.23064C9.3495 4.07832 9.38217 3.91494 9.38217 3.74992C9.38217 3.58491 9.3495 3.42153 9.28604 3.2692C9.22258 3.11688 9.12958 2.97863 9.01242 2.86242C8.89622 2.74526 8.75797 2.65227 8.60564 2.58881C8.45332 2.52535 8.28994 2.49268 8.12492 2.49268C7.95991 2.49268 7.79653 2.52535 7.6442 2.58881C7.49188 2.65227 7.35363 2.74526 7.23742 2.86242L3.48742 6.61242C3.37026 6.72863 3.27727 6.86688 3.21381 7.0192C3.15035 7.17153 3.11768 7.33491 3.11768 7.49992C3.11768 7.66494 3.15035 7.82832 3.21381 7.98064C3.27727 8.13297 3.37026 8.27122 3.48742 8.38742L7.23742 12.1374Z" fill="#B3B3B3"/>
</svg>
