<svg width="32" height="32" viewBox="0 0 32 32" fill="none" xmlns="http://www.w3.org/2000/svg">
<path d="M0 16C0 7.16344 7.16344 0 16 0C24.8366 0 32 7.16344 32 16C32 24.8366 24.8366 32 16 32C7.16344 32 0 24.8366 0 16Z" fill="#9B87F5" fill-opacity="0.2"/>
<path d="M16 12.6667V22" stroke="#9B87F5" stroke-width="2" stroke-linecap="round" stroke-linejoin="round"/>
<path d="M10.0002 20C9.82335 20 9.65378 19.9298 9.52876 19.8047C9.40373 19.6797 9.3335 19.5101 9.3335 19.3333V10.6667C9.3335 10.4899 9.40373 10.3203 9.52876 10.1953C9.65378 10.0702 9.82335 10 10.0002 10H13.3335C14.0407 10 14.719 10.281 15.2191 10.781C15.7192 11.2811 16.0002 11.9594 16.0002 12.6667C16.0002 11.9594 16.2811 11.2811 16.7812 10.781C17.2813 10.281 17.9596 10 18.6668 10H22.0002C22.177 10 22.3465 10.0702 22.4716 10.1953C22.5966 10.3203 22.6668 10.4899 22.6668 10.6667V19.3333C22.6668 19.5101 22.5966 19.6797 22.4716 19.8047C22.3465 19.9298 22.177 20 22.0002 20H18.0002C17.4697 20 16.961 20.2107 16.5859 20.5858C16.2109 20.9609 16.0002 21.4696 16.0002 22C16.0002 21.4696 15.7894 20.9609 15.4144 20.5858C15.0393 20.2107 14.5306 20 14.0002 20H10.0002Z" stroke="#9B87F5" stroke-width="2" stroke-linecap="round" stroke-linejoin="round"/>
</svg>
