<svg width="46" height="45" viewBox="0 0 46 45" fill="none" xmlns="http://www.w3.org/2000/svg">
<path d="M0.890625 22.5C0.890625 10.0736 10.9642 0 23.3906 0V0C35.817 0 45.8906 10.0736 45.8906 22.5V22.5C45.8906 34.9264 35.817 45 23.3906 45V45C10.9642 45 0.890625 34.9264 0.890625 22.5V22.5Z" fill="#5222D0"/>
<path d="M13.167 30.3333C12.8656 30.3333 12.5766 30.1958 12.3635 29.9509C12.1505 29.7061 12.0308 29.374 12.0308 29.0278V12.0556C12.0308 11.7093 12.1505 11.3772 12.3635 11.1324C12.5766 10.8875 12.8656 10.75 13.167 10.75H18.8479C20.0533 10.75 21.2093 11.3002 22.0616 12.2796C22.9139 13.2589 23.3927 14.5872 23.3927 15.9722C23.3927 14.5872 23.8716 13.2589 24.7239 12.2796C25.5762 11.3002 26.7322 10.75 27.9375 10.75H33.6185C33.9199 10.75 34.2089 10.8875 34.4219 11.1324C34.635 11.3772 34.7547 11.7093 34.7547 12.0556V29.0278C34.7547 29.374 34.635 29.7061 34.4219 29.9509C34.2089 30.1958 33.9199 30.3333 33.6185 30.3333H26.8013C25.8973 30.3333 25.0303 30.746 24.3911 31.4805C23.7519 32.215 23.3927 33.2112 23.3927 34.25C23.3927 33.2112 23.0336 32.215 22.3944 31.4805C21.7552 30.746 20.8882 30.3333 19.9841 30.3333H13.167Z" stroke="white" stroke-width="2" stroke-linecap="round" stroke-linejoin="round"/>
<path d="M23.3213 16.75V31.75" stroke="white" stroke-width="2" stroke-linecap="round" stroke-linejoin="round"/>
</svg>
