<svg width="16" height="16" viewBox="0 0 16 16" fill="none" xmlns="http://www.w3.org/2000/svg">
<path d="M8.00021 3.33333C8.001 3.06669 7.94846 2.80257 7.84568 2.55653C7.7429 2.31049 7.59195 2.08748 7.40173 1.90063C7.2115 1.71377 6.98583 1.56685 6.73798 1.46849C6.49014 1.37012 6.22513 1.32232 5.95854 1.32787C5.69195 1.33343 5.42917 1.39224 5.18564 1.50084C4.94211 1.60945 4.72276 1.76565 4.54048 1.96027C4.3582 2.15489 4.21668 2.38399 4.12425 2.6341C4.03181 2.88421 3.99032 3.15028 4.00221 3.41666C3.61035 3.51742 3.24655 3.70603 2.93837 3.96821C2.63019 4.23038 2.38571 4.55925 2.22344 4.9299C2.06118 5.30055 1.98539 5.70326 2.0018 6.10754C2.01822 6.51182 2.12643 6.90706 2.31821 7.26333C1.981 7.53729 1.71583 7.88948 1.54577 8.28929C1.37571 8.68909 1.30592 9.12439 1.34245 9.55732C1.37899 9.99025 1.52076 10.4077 1.75542 10.7733C1.99008 11.139 2.31052 11.4418 2.68888 11.6553C2.64216 12.0168 2.67004 12.3841 2.7708 12.7343C2.87157 13.0846 3.04308 13.4106 3.27474 13.692C3.50639 13.9734 3.79329 14.2043 4.11769 14.3705C4.4421 14.5367 4.79713 14.6346 5.16086 14.6582C5.5246 14.6818 5.88931 14.6306 6.23247 14.5077C6.57563 14.3849 6.88997 14.193 7.15605 13.9438C7.42214 13.6947 7.63433 13.3937 7.77952 13.0594C7.92471 12.725 7.99982 12.3645 8.00021 12V3.33333Z" stroke="#FAFAFA" stroke-width="2" stroke-linecap="round" stroke-linejoin="round"/>
<path d="M8.00001 3.33333C7.99922 3.06669 8.05177 2.80257 8.15455 2.55653C8.25733 2.31049 8.40827 2.08748 8.5985 1.90063C8.78872 1.71377 9.01439 1.56685 9.26224 1.46849C9.51008 1.37012 9.77509 1.32232 10.0417 1.32787C10.3083 1.33343 10.5711 1.39224 10.8146 1.50084C11.0581 1.60945 11.2775 1.76565 11.4597 1.96027C11.642 2.15489 11.7835 2.38399 11.876 2.6341C11.9684 2.88421 12.0099 3.15028 11.998 3.41666C12.3899 3.51742 12.7537 3.70603 13.0619 3.96821C13.37 4.23038 13.6145 4.55925 13.7768 4.9299C13.939 5.30055 14.0148 5.70326 13.9984 6.10754C13.982 6.51182 13.8738 6.90706 13.682 7.26333C14.0192 7.53729 14.2844 7.88948 14.4544 8.28929C14.6245 8.68909 14.6943 9.12439 14.6578 9.55732C14.6212 9.99025 14.4795 10.4077 14.2448 10.7733C14.0101 11.139 13.6897 11.4418 13.3113 11.6553C13.3581 12.0168 13.3302 12.3841 13.2294 12.7343C13.1287 13.0846 12.9571 13.4106 12.7255 13.692C12.4938 13.9734 12.2069 14.2043 11.8825 14.3705C11.5581 14.5367 11.2031 14.6346 10.8394 14.6582C10.4756 14.6818 10.1109 14.6306 9.76775 14.5077C9.42459 14.3849 9.11025 14.193 8.84417 13.9438C8.57808 13.6947 8.36589 13.3937 8.2207 13.0594C8.07551 12.725 8.0004 12.3645 8.00001 12V3.33333Z" stroke="#FAFAFA" stroke-width="2" stroke-linecap="round" stroke-linejoin="round"/>
<path d="M10 8.66667C9.4403 8.46977 8.95155 8.11133 8.59555 7.63667C8.23956 7.16201 8.0323 6.59245 8 6C7.9677 6.59245 7.76045 7.16201 7.40445 7.63667C7.04845 8.11133 6.5597 8.46977 6 8.66667" stroke="#FAFAFA" stroke-width="2" stroke-linecap="round" stroke-linejoin="round"/>
<path d="M11.7329 4.33334C11.8943 4.05373 11.9855 3.73922 11.9989 3.41667" stroke="#FAFAFA" stroke-width="2" stroke-linecap="round" stroke-linejoin="round"/>
<path d="M4.00195 3.41667C4.01514 3.73916 4.10617 4.05367 4.26729 4.33334" stroke="#FAFAFA" stroke-width="2" stroke-linecap="round" stroke-linejoin="round"/>
<path d="M2.31787 7.264C2.43983 7.16467 2.57034 7.07633 2.70787 7" stroke="#FAFAFA" stroke-width="2" stroke-linecap="round" stroke-linejoin="round"/>
<path d="M13.292 7C13.4295 7.07633 13.56 7.16467 13.682 7.264" stroke="#FAFAFA" stroke-width="2" stroke-linecap="round" stroke-linejoin="round"/>
<path d="M3.99981 12C3.54036 12.0002 3.08865 11.8817 2.68848 11.656" stroke="#FAFAFA" stroke-width="2" stroke-linecap="round" stroke-linejoin="round"/>
<path d="M13.3113 11.656C12.9112 11.8817 12.4594 12.0002 12 12" stroke="#FAFAFA" stroke-width="2" stroke-linecap="round" stroke-linejoin="round"/>
</svg>
