<svg width="30" height="31" viewBox="0 0 30 31" fill="none" xmlns="http://www.w3.org/2000/svg">
<path d="M15.275 3H14.725C14.062 3 13.4261 3.26339 12.9572 3.73223C12.4884 4.20107 12.225 4.83696 12.225 5.5V5.725C12.2246 6.16341 12.1088 6.59399 11.8894 6.97355C11.67 7.35311 11.3547 7.6683 10.975 7.8875L10.4375 8.2C10.0575 8.41942 9.62634 8.53494 9.1875 8.53494C8.74866 8.53494 8.31755 8.41942 7.9375 8.2L7.75 8.1C7.17633 7.76908 6.4948 7.6793 5.855 7.85039C5.21521 8.02147 4.66944 8.43942 4.3375 9.0125L4.0625 9.4875C3.73158 10.0612 3.64181 10.7427 3.81289 11.3825C3.98397 12.0223 4.40192 12.5681 4.975 12.9L5.1625 13.025C5.54035 13.2431 5.85453 13.5564 6.07382 13.9335C6.29311 14.3107 6.40987 14.7387 6.4125 15.175V15.8125C6.41425 16.253 6.29957 16.6862 6.08006 17.0681C5.86055 17.4501 5.54401 17.7672 5.1625 17.9875L4.975 18.1C4.40192 18.4319 3.98397 18.9777 3.81289 19.6175C3.64181 20.2573 3.73158 20.9388 4.0625 21.5125L4.3375 21.9875C4.66944 22.5606 5.21521 22.9785 5.855 23.1496C6.4948 23.3207 7.17633 23.2309 7.75 22.9L7.9375 22.8C8.31755 22.5806 8.74866 22.4651 9.1875 22.4651C9.62634 22.4651 10.0575 22.5806 10.4375 22.8L10.975 23.1125C11.3547 23.3317 11.67 23.6469 11.8894 24.0265C12.1088 24.406 12.2246 24.8366 12.225 25.275V25.5C12.225 26.163 12.4884 26.7989 12.9572 27.2678C13.4261 27.7366 14.062 28 14.725 28H15.275C15.938 28 16.5739 27.7366 17.0428 27.2678C17.5116 26.7989 17.775 26.163 17.775 25.5V25.275C17.7755 24.8366 17.8912 24.406 18.1106 24.0265C18.33 23.6469 18.6453 23.3317 19.025 23.1125L19.5625 22.8C19.9425 22.5806 20.3737 22.4651 20.8125 22.4651C21.2513 22.4651 21.6825 22.5806 22.0625 22.8L22.25 22.9C22.8237 23.2309 23.5052 23.3207 24.145 23.1496C24.7848 22.9785 25.3306 22.5606 25.6625 21.9875L25.9375 21.5C26.2684 20.9263 26.3582 20.2448 26.1871 19.605C26.016 18.9652 25.5981 18.4194 25.025 18.0875L24.8375 17.9875C24.456 17.7672 24.1395 17.4501 23.9199 17.0681C23.7004 16.6862 23.5858 16.253 23.5875 15.8125V15.1875C23.5858 14.747 23.7004 14.3138 23.9199 13.9319C24.1395 13.5499 24.456 13.2328 24.8375 13.0125L25.025 12.9C25.5981 12.5681 26.016 12.0223 26.1871 11.3825C26.3582 10.7427 26.2684 10.0612 25.9375 9.4875L25.6625 9.0125C25.3306 8.43942 24.7848 8.02147 24.145 7.85039C23.5052 7.6793 22.8237 7.76908 22.25 8.1L22.0625 8.2C21.6825 8.41942 21.2513 8.53494 20.8125 8.53494C20.3737 8.53494 19.9425 8.41942 19.5625 8.2L19.025 7.8875C18.6453 7.6683 18.33 7.35311 18.1106 6.97355C17.8912 6.59399 17.7755 6.16341 17.775 5.725V5.5C17.775 4.83696 17.5116 4.20107 17.0428 3.73223C16.5739 3.26339 15.938 3 15.275 3Z" stroke="#FAFAFA" stroke-width="2" stroke-linecap="round" stroke-linejoin="round"/>
<path d="M15 19.25C17.0711 19.25 18.75 17.5711 18.75 15.5C18.75 13.4289 17.0711 11.75 15 11.75C12.9289 11.75 11.25 13.4289 11.25 15.5C11.25 17.5711 12.9289 19.25 15 19.25Z" stroke="#FAFAFA" stroke-width="2" stroke-linecap="round" stroke-linejoin="round"/>
</svg>
