<svg width="48" height="48" viewBox="0 0 48 48" fill="none" xmlns="http://www.w3.org/2000/svg">
<path d="M0 12C0 5.37258 5.37258 0 12 0H36C42.6274 0 48 5.37258 48 12V36C48 42.6274 42.6274 48 36 48H12C5.37258 48 0 42.6274 0 36V12Z" fill="#FFDEE2" fill-opacity="0.3"/>
<path d="M21.937 27.5C21.8477 27.1539 21.6673 26.8381 21.4146 26.5854C21.1619 26.3327 20.8461 26.1523 20.5 26.063L14.365 24.481C14.2603 24.4513 14.1682 24.3883 14.1026 24.3014C14.037 24.2146 14.0015 24.1088 14.0015 24C14.0015 23.8912 14.037 23.7854 14.1026 23.6986C14.1682 23.6118 14.2603 23.5487 14.365 23.519L20.5 21.936C20.846 21.8468 21.1617 21.6666 21.4144 21.414C21.6671 21.1615 21.8476 20.8459 21.937 20.5L23.519 14.365C23.5484 14.2599 23.6114 14.1673 23.6983 14.1014C23.7853 14.0355 23.8914 13.9998 24.0005 13.9998C24.1096 13.9998 24.2157 14.0355 24.3027 14.1014C24.3896 14.1673 24.4526 14.2599 24.482 14.365L26.063 20.5C26.1523 20.8461 26.3327 21.1619 26.5854 21.4146C26.8381 21.6673 27.1539 21.8477 27.5 21.937L33.635 23.518C33.7405 23.5471 33.8335 23.61 33.8998 23.6971C33.9661 23.7841 34.0021 23.8906 34.0021 24C34.0021 24.1094 33.9661 24.2159 33.8998 24.3029C33.8335 24.39 33.7405 24.4529 33.635 24.482L27.5 26.063C27.1539 26.1523 26.8381 26.3327 26.5854 26.5854C26.3327 26.8381 26.1523 27.1539 26.063 27.5L24.481 33.635C24.4516 33.7401 24.3886 33.8327 24.3017 33.8986C24.2147 33.9646 24.1086 34.0003 23.9995 34.0003C23.8904 34.0003 23.7843 33.9646 23.6973 33.8986C23.6104 33.8327 23.5474 33.7401 23.518 33.635L21.937 27.5Z" stroke="#CC97FF" stroke-width="2" stroke-linecap="round" stroke-linejoin="round"/>
<path d="M32 15V19" stroke="#CC97FF" stroke-width="2" stroke-linecap="round" stroke-linejoin="round"/>
<path d="M34 17H30" stroke="#CC97FF" stroke-width="2" stroke-linecap="round" stroke-linejoin="round"/>
<path d="M16 29V31" stroke="#CC97FF" stroke-width="2" stroke-linecap="round" stroke-linejoin="round"/>
<path d="M17 30H15" stroke="#CC97FF" stroke-width="2" stroke-linecap="round" stroke-linejoin="round"/>
</svg>
