<svg width="16" height="16" viewBox="0 0 16 16" fill="none" xmlns="http://www.w3.org/2000/svg">
<path d="M8.39083 1.72404C8.14084 1.47397 7.80176 1.33345 7.44816 1.33337H2.66683C2.31321 1.33337 1.97407 1.47385 1.72402 1.7239C1.47397 1.97395 1.3335 2.31309 1.3335 2.66671V7.44804C1.33357 7.80163 1.4741 8.14072 1.72416 8.39071L7.52683 14.1934C7.82984 14.4945 8.23966 14.6635 8.66683 14.6635C9.094 14.6635 9.50382 14.4945 9.80683 14.1934L14.1935 9.80671C14.4946 9.5037 14.6636 9.09388 14.6636 8.66671C14.6636 8.23954 14.4946 7.82972 14.1935 7.52671L8.39083 1.72404Z" stroke="#9B87F5" stroke-width="2" stroke-linecap="round" stroke-linejoin="round"/>
<path d="M4.99984 5.33329C5.18393 5.33329 5.33317 5.18405 5.33317 4.99996C5.33317 4.81586 5.18393 4.66663 4.99984 4.66663C4.81574 4.66663 4.6665 4.81586 4.6665 4.99996C4.6665 5.18405 4.81574 5.33329 4.99984 5.33329Z" fill="#9B87F5" stroke="#9B87F5" stroke-width="2" stroke-linecap="round" stroke-linejoin="round"/>
</svg>
